<svg xmlns="http://www.w3.org/2000/svg" width="256" height="256" viewBox="0 0 256 256">
  <rect width="256" height="256" rx="18" fill="#ffffff" />
  <rect x="16" y="16" width="224" height="224" rx="10" fill="#f8fafc" />
  <g fill="#0f172a">
    <rect x="32" y="32" width="48" height="48" rx="4" />
    <rect x="44" y="44" width="24" height="24" fill="#ffffff" />
    <rect x="52" y="52" width="8" height="8" />
    <rect x="176" y="32" width="48" height="48" rx="4" />
    <rect x="188" y="44" width="24" height="24" fill="#ffffff" />
    <rect x="196" y="52" width="8" height="8" />
    <rect x="32" y="176" width="48" height="48" rx="4" />
    <rect x="44" y="188" width="24" height="24" fill="#ffffff" />
    <rect x="52" y="196" width="8" height="8" />
    <rect x="96" y="36" width="16" height="16" />
    <rect x="128" y="36" width="12" height="12" />
    <rect x="148" y="56" width="16" height="16" />
    <rect x="96" y="72" width="28" height="12" />
    <rect x="132" y="84" width="12" height="24" />
    <rect x="156" y="92" width="20" height="12" />
    <rect x="92" y="116" width="16" height="16" />
    <rect x="116" y="116" width="36" height="12" />
    <rect x="164" y="116" width="16" height="16" />
    <rect x="196" y="112" width="20" height="20" />
    <rect x="92" y="148" width="24" height="12" />
    <rect x="128" y="144" width="16" height="32" />
    <rect x="152" y="152" width="32" height="12" />
    <rect x="200" y="148" width="16" height="16" />
    <rect x="96" y="192" width="16" height="16" />
    <rect x="124" y="188" width="28" height="12" />
    <rect x="160" y="184" width="16" height="40" />
    <rect x="188" y="196" width="36" height="16" />
  </g>
  <text x="128" y="238" text-anchor="middle" font-size="12" fill="#475569" font-family="Arial, sans-serif">
    Sales QR
  </text>
</svg>
